<?xml version="1.0" encoding="UTF-8" standalone="no"?>
<svg
   xmlns:dc="http://purl.org/dc/elements/1.1/"
   xmlns:cc="http://creativecommons.org/ns#"
   xmlns:rdf="http://www.w3.org/1999/02/22-rdf-syntax-ns#"
   xmlns:svg="http://www.w3.org/2000/svg"
   xmlns="http://www.w3.org/2000/svg"
   xmlns:sodipodi="http://sodipodi.sourceforge.net/DTD/sodipodi-0.dtd"
   xmlns:inkscape="http://www.inkscape.org/namespaces/inkscape"
   width="600"
   height="600"
   viewBox="0 0 158.75 158.75"
   version="1.1"
   id="svg12"
   inkscape:version="1.0.2-2 (e86c870879, 2021-01-15)"
   sodipodi:docname="yw-logo-2021-square.svg"
   inkscape:export-filename="E:\my-docs\development\yjangwynter.com\brand\yw-logo-2021-square.png"
   inkscape:export-xdpi="68.459045"
   inkscape:export-ydpi="68.459045">
  <metadata
     id="metadata17">
    <rdf:RDF>
      <cc:Work
         rdf:about="">
        <dc:format>image/svg+xml</dc:format>
        <dc:type
           rdf:resource="http://purl.org/dc/dcmitype/StillImage" />
        <dc:title></dc:title>
      </cc:Work>
    </rdf:RDF>
  </metadata>
  <sodipodi:namedview
     id="namedview14"
     pagecolor="#ffffff"
     bordercolor="#2d2d2d"
     borderopacity="1"
     inkscape:pageshadow="0"
     inkscape:pageopacity="0"
     inkscape:pagecheckerboard="true"
     inkscape:document-units="mm"
     showgrid="false"
     borderlayer="false"
     inkscape:snap-global="true"
     inkscape:zoom="0.64"
     inkscape:cx="-96.187629"
     inkscape:cy="562.84223"
     inkscape:window-width="1920"
     inkscape:window-height="1017"
     inkscape:window-x="-8"
     inkscape:window-y="251"
     inkscape:window-maximized="1"
     inkscape:current-layer="layer1"
     inkscape:document-rotation="0"
     units="px"
     width="500px" />
  <defs
     id="defs9">
    <rect
       x="210.22462"
       y="449.82556"
       width="312.32471"
       height="345.76663"
       id="rect3230" />
    <rect
       x="210.22462"
       y="449.82556"
       width="312.32471"
       height="345.76663"
       id="rect80770" />
  </defs>
  <g
     inkscape:groupmode="layer"
     id="layer3"
     inkscape:label="Layer 2" />
  <g
     inkscape:label="Layer 1"
     inkscape:groupmode="layer"
     id="layer1"
     style="display:inline">
    <g
       aria-label="yj"
       transform="matrix(0.47074874,0,0,0.48109435,-76.212249,-200.71514)"
       id="text80768"
       style="font-size:192px;line-height:1.25;white-space:pre;shape-inside:url(#rect80770)">
      <g
         id="g84014">
        <g
           id="g84026"
           inkscape:label="#yw-logo"
           inkscape:export-filename="/mnt/hdd/my-docs/yjangwynter.com/brand/yw-logo-2021.png"
           inkscape:export-xdpi="49.799999"
           inkscape:export-ydpi="49.799999">
          <desc
             id="desc84030">Logo crica 2021</desc>
          <title
             id="title84028">Yjang Wynter Logo</title>
          <g
             inkscape:export-filename="/mnt/hdd/my-docs/yjangwynter.com/brand/yw-logo-2021-trans.png"
             inkscape:export-xdpi="256"
             inkscape:export-ydpi="256"
             id="g197"
             transform="matrix(0.997,0,0,0.997,1.003194,1.759095)">
            <path
               d="m 379.71557,602.03066 q 6.46875,1.96875 12.75,1.96875 36.9375,-0.9375 43.125,-31.875 l 1.5,-21.75 v -57 q 0,-0.75 0.75,-0.75 h 19.875 q 0.75,0 0.75,0.75 v 43.125 q 0,13.3125 0.375,24.375 -0.375,3.09375 -0.375,15 -12.84375,53.0625 -74.625,49.5 h -1.5 q -1.3125,0 -2.625,-0.0937 z"
               style="fill:#014f2a"
               id="path83560" />
            <path
               d="m 321.70544,492.61499 h 20.25 q 0.75,0.0937 0.75,0.75 v 122.625 q 0,23.71875 -18.75,44.25 -21.09375,19.875 -45.375,19.875 h -4.5 q -31.03125,0 -53.625,-30 0,-0.46875 -4.125,-7.5 l 0.75,-0.375 h 24 q 15,16.5 33.75,16.5 h 3 q 23.34375,0 37.875,-22.875 5.25,-10.03125 5.25,-16.5 v -10.875 q -20.53125,16.875 -42.375,16.875 h -4.5 q -21.75,0 -42.375,-16.875 -12.65625,-12.5625 -15.75,-21.75 -6,-13.5 -6,-24.75 v -68.25 q 0.0937,-0.75 0.75,-0.75 h 20.25 q 0.75,0.0937 0.75,0.75 v 79.875 q 4.21875,8.34375 9,13.5 15.28125,16.875 34.125,16.875 h 3 q 19.6875,0 31.125,-11.8125 11.4375,-11.90625 12,-18.5625 v -80.25 q 0.0937,-0.75 0.75,-0.75 z"
               style="fill:#02b159"
               id="path15" />
          </g>
        </g>
        <g
           inkscape:groupmode="layer"
           id="layer2"
           inkscape:label="trash" />
      </g>
    </g>
  </g>
</svg>
